<?xml version="1.0" encoding="utf-8"?>
<!-- Generator: Adobe Illustrator 19.0.0, SVG Export Plug-In . SVG Version: 6.00 Build 0)  -->
<svg version="1.1" id="Layer_1" xmlns="http://www.w3.org/2000/svg" xmlns:xlink="http://www.w3.org/1999/xlink" x="0px" y="0px"
	 viewBox="0 0 167 34" style="enable-background:new 0 0 167 34;" xml:space="preserve">
<g id="XMLID_24_">
	<path id="XMLID_22_" d="M8,18.9L8,18.9c-0.1-0.1-0.2-0.1-0.3-0.1c-0.1,0-0.3,0.1-0.3,0.1c-0.1,0.1-0.1,0.2-0.1,0.3
		c0,0.1,0.1,0.3,0.1,0.3c0.1,0.1,0.2,0.1,0.3,0.1c0.1,0,0.3-0.1,0.3-0.1l0,0c0.1-0.1,0.1-0.2,0.1-0.3C8.1,19.2,8.1,19,8,18.9z"/>
	<path id="XMLID_21_" d="M1,23.9h10.2c-0.1-0.1-0.3-0.2-0.4-0.3c-0.2-0.2-0.4-0.5-0.4-0.9c0-0.1,0-0.2,0-0.3l0,0
		c0-0.1,0-0.1,0.1-0.2l-2.2-1.9c-0.1,0.1-0.2,0.1-0.3,0.1c-0.1,0-0.3,0.1-0.4,0.1c-0.4,0-0.7-0.1-0.9-0.4l0,0
		c-0.2-0.2-0.4-0.6-0.4-0.9c0-0.4,0.1-0.7,0.4-0.9C7,18.2,7.3,18,7.6,18c0.2,0,0.3,0,0.5,0.1c0.1,0,0.2,0.1,0.3,0.2l5-2.4l0,0
		c0,0,0-0.1,0-0.1c0-0.4,0.1-0.7,0.4-0.9c0.2-0.2,0.5-0.4,0.9-0.4s0.7,0.1,0.9,0.4c0.1,0.1,0.2,0.2,0.3,0.4V9.1H1V23.9z"/>
	<path id="XMLID_20_" d="M11.7,22.3c-0.1,0-0.3,0.1-0.3,0.1c-0.1,0.1-0.1,0.2-0.1,0.3c0,0.1,0.1,0.3,0.1,0.3
		c0.1,0.1,0.2,0.1,0.3,0.1c0.1,0,0.3-0.1,0.3-0.1v0c0.1-0.1,0.1-0.2,0.1-0.3c0-0.1-0.1-0.3-0.1-0.3C12,22.3,11.9,22.3,11.7,22.3z"/>
	<path id="XMLID_19_" d="M15.6,16.7C15.3,16.9,15,17,14.7,17c-0.2,0-0.4,0-0.6-0.1c-0.1-0.1-0.3-0.2-0.4-0.3l-4.9,2.3
		c0,0,0,0.1,0,0.1c0,0.1,0,0.1,0,0.2c0,0.1,0,0.2,0,0.3c0,0.1,0,0.1-0.1,0.2l2.2,1.9c0.1-0.1,0.2-0.1,0.3-0.1c0.1,0,0.3-0.1,0.4-0.1
		c0.4,0,0.7,0.1,0.9,0.4l0,0l0,0c0.2,0.2,0.4,0.6,0.4,0.9c0,0.4-0.1,0.7-0.4,0.9v0c-0.1,0.1-0.2,0.2-0.4,0.3h3.6v-7.7
		C15.8,16.4,15.7,16.6,15.6,16.7L15.6,16.7z"/>
	<path id="XMLID_18_" d="M15,15.4L15,15.4c-0.1-0.1-0.2-0.1-0.3-0.1c-0.1,0-0.3,0.1-0.3,0.1v0c-0.1,0.1-0.1,0.2-0.1,0.3
		c0,0.1,0.1,0.3,0.1,0.3c0.1,0.1,0.2,0.1,0.3,0.1c0.1,0,0.3-0.1,0.3-0.1l0,0c0.1-0.1,0.1-0.2,0.1-0.3C15.2,15.6,15.1,15.5,15,15.4z"
		/>
	<path id="XMLID_17_" d="M26.4,15.6l-1.8-0.7c-1.3-0.5-2.2-0.8-2.2-1.7c0-0.8,0.7-1.3,1.8-1.3c1.1,0,2,0.4,3,1.1l1.6-2
		c-1.2-1.2-3-1.9-4.6-1.9c-3,0-5.1,1.9-5.1,4.3c0,2.1,1.4,3.3,2.9,3.9l1.8,0.8c1.3,0.5,2.1,0.8,2.1,1.7c0,0.9-0.7,1.4-2,1.4
		c-1.2,0-2.5-0.6-3.5-1.5l-1.9,2.2c1.5,1.4,3.5,2.1,5.3,2.1c3.4,0,5.4-2.1,5.4-4.4C29.3,17.4,28.2,16.3,26.4,15.6z"/>
	<path id="XMLID_43_" d="M37.5,9c-3.8,0-6.5,2.7-6.5,7.4c0,4.7,2.7,7.5,6.5,7.5c3.9,0,6.5-2.8,6.5-7.5C44,11.7,41.4,9,37.5,9z
		 M37.5,21.1c-1.9,0-3.2-1.8-3.2-4.7c0-2.9,1.3-4.6,3.2-4.6c2,0,3.2,1.7,3.2,4.6C40.7,19.3,39.5,21.1,37.5,21.1z"/>
	<path id="XMLID_14_" d="M52.8,21.1c-2.1,0-3.5-1.7-3.5-4.7c0-2.9,1.6-4.6,3.6-4.6c1,0,1.7,0.4,2.4,1.1l1.8-2c-1-1-2.5-1.9-4.2-1.9
		c-3.7,0-6.8,2.8-6.8,7.5c0,4.8,3,7.3,6.8,7.3c1.8,0,3.4-0.7,4.6-2.1l-1.8-2C54.8,20.6,54,21.1,52.8,21.1z"/>
	<rect id="XMLID_13_" x="59.4" y="9.3" width="3.3" height="14.3"/>
	<path id="XMLID_38_" d="M71.9,9c-3.8,0-6.5,2.7-6.5,7.4c0,4.7,2.7,7.5,6.5,7.5c3.9,0,6.5-2.8,6.5-7.5C78.4,11.7,75.7,9,71.9,9z
		 M71.9,21.1c-1.9,0-3.2-1.8-3.2-4.7c0-2.9,1.3-4.6,3.2-4.6c2,0,3.2,1.7,3.2,4.6C75.1,19.3,73.8,21.1,71.9,21.1z"/>
	<path id="XMLID_10_" d="M87.3,15.9l-2.1-0.9c-1.1-0.5-2.4-1-2.4-2.4c0-1.3,1.1-2.1,2.7-2.1c1.3,0,2.4,0.5,3.3,1.4l1-1.2
		c-1-1.1-2.5-1.8-4.2-1.8c-2.6,0-4.6,1.6-4.6,3.8c0,2.1,1.6,3.1,2.9,3.7l2.1,0.9c1.4,0.6,2.4,1.1,2.4,2.6c0,1.4-1.1,2.4-3,2.4
		c-1.5,0-2.9-0.7-4-1.8l-1.1,1.3c1.3,1.3,3,2.1,5,2.1c3,0,4.9-1.8,4.9-4.1C90.2,17.7,88.9,16.7,87.3,15.9z"/>
	<path id="XMLID_34_" d="M102.8,25.7c-1.6,0-2.9-0.6-3.5-1.9c3.1-0.5,5.1-3.3,5.1-7.5c0-4.6-2.6-7.4-6.2-7.4s-6.2,2.8-6.2,7.4
		c0,4.2,2.1,7,5.3,7.5c0.8,2,2.7,3.4,5.3,3.4c0.9,0,1.6-0.2,2.1-0.3l-0.4-1.4C104,25.6,103.5,25.7,102.8,25.7z M98.2,22.3
		c-2.6,0-4.3-2.3-4.3-5.9c0-3.6,1.7-5.8,4.3-5.8s4.3,2.2,4.3,5.8C102.5,20,100.8,22.3,98.2,22.3z"/>
	<path id="XMLID_7_" d="M116,17.7c0,3.5-1.5,4.6-3.4,4.6c-1.9,0-3.3-1.1-3.3-4.6V9.2h-1.8v8.5c0,4.6,2.2,6.2,5.2,6.2
		s5.2-1.6,5.2-6.2V9.2H116V17.7z"/>
	<path id="XMLID_30_" d="M124.1,9.2l-4.9,14.4h1.9l1.4-4.4h5.3l1.4,4.4h1.9l-4.9-14.4H124.1z M127.2,17.8h-4.3l0.7-2.2
		c0.5-1.6,1-3.2,1.4-4.9h0.1c0.5,1.7,0.9,3.3,1.4,4.9L127.2,17.8z"/>
	<path id="XMLID_27_" d="M142.5,13.3c0-3-2.1-4-5-4h-4.5v14.4h1.8v-6.1h2.6l3.5,6.1h2.1l-3.7-6.3C141.2,16.8,142.5,15.5,142.5,13.3z
		 M137.2,16.1h-2.4v-5.4h2.4c2.2,0,3.5,0.7,3.5,2.6C140.7,15.1,139.4,16.1,137.2,16.1z"/>
	<polygon id="XMLID_2_" points="147.4,16.8 152.9,16.8 152.9,15.3 147.4,15.3 147.4,10.8 153.9,10.8 153.9,9.2 145.6,9.2 
		145.6,23.6 154.1,23.6 154.1,22.1 147.4,22.1 	"/>
	<path id="XMLID_1_" d="M163,15.9l-2.1-0.9c-1.1-0.5-2.4-1-2.4-2.4c0-1.3,1.1-2.1,2.7-2.1c1.3,0,2.4,0.5,3.3,1.4l1-1.2
		c-1-1.1-2.5-1.8-4.2-1.8c-2.6,0-4.6,1.6-4.6,3.8c0,2.1,1.6,3.1,2.9,3.7l2.1,0.9c1.4,0.6,2.4,1.1,2.4,2.6c0,1.4-1.1,2.4-3,2.4
		c-1.5,0-2.9-0.7-4-1.8l-1.1,1.3c1.3,1.3,3,2.1,5,2.1c3,0,4.9-1.8,4.9-4.1C166,17.7,164.7,16.7,163,15.9z"/>
</g>
</svg>
